<svg width="122" height="28" viewBox="0 0 122 28" fill="none" xmlns="http://www.w3.org/2000/svg">
<path d="M48.7794 23.8971C47.8409 23.8971 47.1672 23.8705 46.4964 23.902C44.8296 23.982 43.1629 24.0688 41.4991 24.1961C40.8672 24.2445 40.3143 24.2139 39.8547 23.5152C40.2432 23.3179 40.5878 23.1037 40.9588 22.9606C42.0482 22.5403 42.6304 21.7528 42.7404 20.5825C43.16 16.1074 43.6993 11.6393 43.3732 7.12769C43.3031 6.15176 43.3342 5.16301 43.1863 4.20089C43.1064 3.68579 42.7472 3.21312 42.5087 2.72368C42.3461 2.38916 42.1738 2.05858 41.9411 1.59677C42.3724 1.54743 42.6197 1.49414 42.8669 1.49513C46.2335 1.50006 49.6011 1.49513 52.9676 1.52868C54.501 1.54348 56.711 3.50422 56.9456 5.01302C57.1617 6.40339 56.2193 7.25696 55.46 8.18553C55.2954 8.38683 55.0754 8.54176 54.8826 8.71938C54.0872 9.45354 53.7835 10.2736 54.3005 11.3363C55.0024 12.78 55.607 14.272 56.3225 15.7088C56.857 16.7814 57.1296 17.8738 56.9885 19.0698C56.8288 20.4207 57.1452 21.6374 57.9786 22.7169C58.7341 23.6948 59.4905 24.6737 60.209 25.6802C60.7669 26.4618 61.5292 26.7716 62.4307 26.7963C63.2533 26.819 64.077 26.8012 65.0758 26.8012C64.6416 27.491 64.2357 27.864 63.5824 27.8798C61.8086 27.9212 60.0338 27.9518 58.2599 27.9992C57.667 28.015 57.299 27.787 57.0654 27.2038C55.1737 22.4791 53.2587 17.7633 51.3535 13.0435C51.1072 12.4326 50.8657 11.8189 50.634 11.2021C50.4228 10.6406 50.0538 10.3663 49.4385 10.3969C48.7093 10.4324 47.9762 10.39 47.247 10.4295C46.3065 10.4798 45.775 10.9801 45.7613 11.9254C45.7234 14.5177 45.7029 17.111 45.7555 19.7023C45.7652 20.1779 46.0719 20.7049 46.3757 21.1045C46.915 21.814 47.5585 22.4426 48.1534 23.1096C48.3199 23.2962 48.4659 23.5004 48.7804 23.8981L48.7794 23.8971ZM48.4688 8.40163C48.6781 8.39176 49.0958 8.3888 49.5105 8.34933C51.0166 8.20625 52.4234 7.79377 53.5917 6.75864C54.3121 6.12117 54.3248 5.63962 53.6355 4.98045C52.8401 4.21964 51.9308 3.65915 50.8219 3.57034C49.9447 3.50028 49.0598 3.49929 48.1787 3.5131C46.3659 3.54172 45.8723 4.04794 45.8139 5.87448C45.7419 8.1204 46.0417 8.43025 48.4688 8.40065V8.40163Z" fill="black"/>
<path d="M103.037 2.05959H110.221C109.793 2.31714 109.566 2.49674 109.309 2.59936C107.999 3.12236 107.338 4.08842 107.282 5.50939C107.161 8.54967 107.031 11.589 107.598 14.6056C108.012 16.8081 108.987 18.678 110.64 20.1908C111.379 20.8687 112.175 21.2131 113.194 21.0986C114.728 20.9249 116.16 20.4937 117.417 19.575C118.469 18.8063 118.922 17.7051 118.941 16.4212C118.973 14.3845 118.981 12.3478 118.989 10.3111C118.993 9.06773 118.989 7.82438 118.966 6.58104C118.938 5.05645 118.599 4.57786 117.208 4.02132C116.83 3.87034 116.453 3.71936 116.105 3.40359H122.001C121.954 4.12296 121.869 4.88278 121.863 5.6426C121.835 9.71112 121.945 13.7846 121.771 17.8462C121.654 20.5894 119.422 22.8196 116.61 23.386C113.826 23.9465 111.111 23.7343 108.525 22.4288C107.576 21.9502 106.862 21.2644 106.397 20.3003C104.92 17.2413 104.404 13.979 104.383 10.6101C104.376 9.28778 104.358 7.96451 104.385 6.64222C104.394 6.22974 104.494 5.80542 104.624 5.4117C105.154 3.7983 104.897 3.15986 103.386 2.44542C103.251 2.38128 103.127 2.29247 102.997 2.2155C103.011 2.1632 103.025 2.10992 103.039 2.05762L103.037 2.05959Z" fill="black"/>
<path d="M23.3218 23.5625C23.5077 23.0829 23.5905 22.78 23.7346 22.5096C24.5144 21.0452 24.7841 19.4762 24.7033 17.8322C24.6409 16.5632 24.4998 15.2942 24.5193 14.0272C24.5475 12.1296 24.5494 10.2152 24.8103 8.34332C25.1365 6.00168 24.7218 4.08732 22.6422 2.76503C22.5215 2.68806 22.4436 2.54201 22.2109 2.27164C23.1903 2.15322 24.0247 2.05849 24.8561 1.94896C27.0797 1.65687 29.3004 1.32926 31.5279 1.07171C33.1255 0.88619 34.6433 1.26117 36.0715 1.98744C38.8647 3.40644 39.8548 6.36482 38.4237 9.33306C36.9662 12.3566 34.3542 13.7529 31.1823 14.1742C30.3918 14.2788 29.5681 14.1545 28.762 14.1052C27.6716 14.038 27.2657 14.3933 27.2238 15.4847C27.144 17.5984 27.2131 19.6854 28.5089 21.4873C28.9061 22.0409 29.3997 22.5224 29.8369 23.0474C30.1776 23.4569 30.1542 23.8635 29.5643 23.8477C27.5402 23.7964 25.5172 23.67 23.3208 23.5635L23.3218 23.5625ZM36.0599 7.28647C35.9849 5.42836 35.9304 5.31981 34.4145 4.46723C33.7321 4.08337 33.0369 3.71925 32.3272 3.39065C30.5641 2.57458 28.8867 2.80351 27.2754 3.84753C26.6163 4.27481 26.4761 4.80274 26.7253 5.54085C26.9502 6.20792 27.1518 6.90064 27.2297 7.59731C27.3776 8.90776 27.437 10.2281 27.5188 11.5454C27.584 12.6003 27.8099 12.8361 28.8711 12.8016C31.5386 12.7158 33.6629 11.5395 35.3423 9.46727C35.8836 8.79921 36.1728 8.06998 36.0608 7.28647H36.0599Z" fill="black"/>
<path d="M79.8184 18.7154C79.5682 19.7268 79.3502 20.7481 79.0396 21.7408C78.9773 21.9402 78.5606 22.1385 78.3065 22.1405C77.4994 22.1484 76.6884 21.9846 75.8852 22.027C72.9947 22.179 70.1062 22.3625 67.2205 22.5855C65.4964 22.7187 63.7887 22.8095 62.1191 22.2559C62.1191 22.174 62.1006 22.0961 62.122 22.0833C63.0031 21.5316 63.2387 20.7481 63.1364 19.7189C62.8736 17.0625 62.6594 14.3992 62.4968 11.7339C62.4511 10.9849 62.5796 10.2063 62.7441 9.46722C63.2786 7.06045 62.9466 4.8017 61.7248 2.68012C61.2828 1.91338 61.5233 1.34302 62.4014 1.24731C62.7879 1.20487 63.1842 1.23941 63.5755 1.24829C66.6549 1.32526 69.7353 1.40618 72.8146 1.48117C74.3908 1.51966 74.8134 1.33316 76.2406 -0.000976562C77.2726 1.2404 77.3933 3.80604 76.4295 5.47666C76.1306 5.1155 75.8336 4.79973 75.5854 4.44843C74.8659 3.4281 73.9362 2.92879 72.6637 2.91793C70.8646 2.90214 69.0654 2.75116 67.2663 2.65939C66.0503 2.59723 65.7738 2.85379 65.768 4.0853C65.7621 5.46186 65.7553 6.83744 65.7729 8.214C65.7875 9.37249 66.2022 9.89055 67.3111 10.1915C67.9906 10.377 68.6877 10.5083 69.3546 10.7323C70.7302 11.1941 71.9744 10.7027 73.2333 10.2616C73.4036 10.2014 73.5682 10.1254 73.8486 10.009C73.6383 11.4457 72.6861 12.2559 71.8722 13.14C71.7165 12.7285 71.6726 12.2115 71.3991 12.0033C71.1128 11.7852 70.6066 11.8276 70.1948 11.8197C68.9418 11.796 67.6879 11.7921 66.4349 11.8029C65.5966 11.8098 65.2958 12.1079 65.2851 12.9506C65.2637 14.6705 65.2462 16.3905 65.2627 18.1095C65.2773 19.6587 66.4261 20.7925 67.9439 20.6702C71.1693 20.4097 74.3908 20.0988 77.6084 19.7594C78.0154 19.7169 78.399 19.3923 78.7796 19.1732C79.0805 18.9996 79.3599 18.7874 79.649 18.593C79.7055 18.6335 79.762 18.6749 79.8184 18.7154Z" fill="black"/>
<path d="M98.8108 7.22828C97.1275 5.88428 95.5299 4.61922 93.9439 3.33838C92.4193 2.10687 90.7438 1.90261 89.0372 2.77789C85.9753 4.34885 83.6378 6.58786 83.0741 10.2202C82.9125 11.2583 82.8843 12.328 82.894 13.3819C82.9106 15.0989 83.5473 16.5998 84.7808 17.7711C85.6716 18.6168 86.6597 19.3608 87.6294 20.1177C87.8894 20.3209 88.2282 20.4926 88.5485 20.5361C91.3436 20.912 94.1153 20.9821 96.7634 19.7447C97.8246 19.2493 98.4866 18.4421 98.839 17.3093C99.0941 16.4893 99.4679 15.7057 99.7882 14.9065C99.8593 14.9153 99.9304 14.9242 100.001 14.9341C100.284 17.4346 100.567 19.9351 100.849 22.4356C100.789 22.4642 100.728 22.4928 100.667 22.5205C100.301 21.9945 99.9382 21.4656 99.5682 20.9416C98.7485 19.7822 98.1926 19.719 97.1557 20.6446C95.3254 22.2797 93.167 23.1135 90.7507 23.2566C89.8413 23.3109 88.9252 23.2685 88.012 23.2566C85.9111 23.23 84.3631 22.0814 83.0342 20.6071C79.5673 16.7616 78.8722 12.3457 80.5925 7.50656C81.2643 5.61588 82.7908 4.49094 84.4829 3.67487C85.9812 2.95156 87.5467 2.28844 89.154 1.90853C90.3067 1.63618 91.5772 1.86215 92.7942 1.88583C94.2457 1.91445 95.6983 2.00721 97.1489 1.98944C98.1546 1.97662 98.2734 2.01707 98.3736 3.01767C98.5109 4.38437 98.656 5.74909 98.8098 7.22828H98.8108Z" fill="black"/>
<path d="M12.52 0.810303C13.108 7.1869 15.9061 12.6468 17.9106 18.3622C18.1199 18.9602 18.3575 19.5474 18.5824 20.1394C18.9183 21.0236 19.3992 21.7805 20.2238 22.2965C20.5626 22.5087 20.8255 22.8462 21.1224 23.1264C21.0942 23.1906 21.0659 23.2537 21.0377 23.3179C18.4354 23.4037 15.833 23.4905 13.2307 23.5764L13.1353 23.2883C13.515 23.0633 13.8918 22.8324 14.2763 22.6143C15.4602 21.9413 15.5205 21.7439 15.3901 20.3999C15.2703 19.1684 15.4241 17.8886 15.1632 16.6965C14.4993 13.6691 13.3495 10.8005 11.9699 8.03258C11.8551 7.80266 11.5893 7.65069 11.3936 7.4632C11.2407 7.66352 11.0519 7.84607 10.9409 8.0681C9.07068 11.81 7.75637 15.767 6.57447 19.7714C6.11397 21.3295 6.46932 22.6508 8.10296 23.6514H0.0730172C0.0486781 23.5961 0.0243391 23.5409 0 23.4856C0.469257 23.1393 0.918069 22.7574 1.41264 22.4534C2.34044 21.8831 2.909 21.1173 3.31985 20.0605C4.42679 17.2146 5.69826 14.4348 6.90061 11.6274C7.82452 9.46933 8.79516 7.32999 9.64508 5.14327C10.2623 3.55356 11.267 2.27074 12.519 0.813263L12.52 0.810303Z" fill="black"/>
</svg>
